<?xml version="1.0" encoding="UTF-8"?>
<svg id="Layer_1" data-name="Layer 1" xmlns="http://www.w3.org/2000/svg" viewBox="0 0 1080 1080">
  <defs>
    <style>
      .cls-1 {
        fill: #030404;
      }
    </style>
  </defs>
  <g>
    <polygon class="cls-1" points="543.17 1074.05 540.64 1071.5 543.19 1074.08 546.18 1070.89 543.17 1074.05"/>
    <path class="cls-1" d="M594.26,434.21c0-6.57-5.34-11.91-11.91-11.91s-11.91,5.34-11.91,11.91,5.34,11.91,11.91,11.91,11.91-5.34,11.91-11.91Z"/>
    <path class="cls-1" d="M539.65,5.92l-92.17,194.92v776.84l40.51,40.8v-225.47c-10.15-1.56-18.05-9.94-18.05-20.53,0-11.68,9.47-21.15,21.16-21.15s21.16,9.47,21.16,21.16c0,10.08-7.2,18.12-16.64,20.24v233.43l43.06,43.37.71-405.36,37.92-35.8.7-175.51c-8.62-2.03-15.18-9.42-15.18-18.64,0-10.77,8.76-19.53,19.52-19.53s19.53,8.76,19.53,19.53c0,9.61-7.1,17.25-16.25,18.86l-.71,178.59-37.92,35.79-.71,403.33,45.96-48.83v-148.12c-10.18-1.53-18.12-9.94-18.12-20.54,0-11.68,9.47-21.16,21.16-21.16,11.68,0,21.16,9.47,21.16,21.16,0,10.07-7.18,18.1-16.6,20.24v140.37s34.08-36.21,34.08-36.21V200.84L539.65,5.92Z"/>
  </g>
  <g>
    <path class="cls-1" d="M308.3,696.13l.52-81.28c-8.7-1.97-15.34-9.4-15.34-18.68,0-10.77,8.76-19.52,19.52-19.52s19.53,8.76,19.53,19.52c0,9.55-7.02,17.15-16.09,18.83l-.5,77.9,74.15,70v-261.18l-90.37-190.31-88.25,182.87v230.71l178.62,188.18v-139.8l-81.79-77.25Z"/>
    <path class="cls-1" d="M324.91,596.17c0-6.56-5.34-11.91-11.91-11.91s-11.91,5.34-11.91,11.91,5.34,11.91,11.91,11.91,11.91-5.34,11.91-11.91Z"/>
  </g>
  <path class="cls-1" d="M780.28,307.16l-90.37,190.31v268.07l74.5-73.17-.5-77.87c-9.09-2.37-15.95-10.27-15.95-20.1,0-11.68,9.47-21.16,21.16-21.16s21.16,9.47,21.16,21.16c0,10.83-8.25,19.42-18.74,20.67l.52,80.53-82.14,79.44v133.9l178.62-188.18v-230.71l-88.25-182.87Z"/>
</svg>